<svg id="Layer_1" enable-background="new 0 0 48 48" height="512" viewBox="0 0 48 48" width="512" xmlns="http://www.w3.org/2000/svg"><g><path d="m24 47c8.27 0 15-6.73 15-15v-16c0-8.27-6.73-15-15-15s-15 6.73-15 15v16c0 8.27 6.73 15 15 15zm1-43.95c6.77.52 12 6.11 12 12.95v5h-12v-3.17c1.18-.42 2-1.55 2-2.83v-6c0-1.28-.82-2.41-2-2.83zm-1 4.95c.55 0 1 .45 1 1v6c0 .55-.45 1-1 1s-1-.45-1-1v-6c0-.55.45-1 1-1zm-13 8c0-6.84 5.23-12.43 12-12.95v3.12c-1.18.42-2 1.55-2 2.83v6c0 1.28.82 2.41 2 2.83v3.17h-12zm0 7h26v9c0 7.17-5.83 13-13 13s-13-5.83-13-13z"/></g></svg>